<?xml version="1.0" standalone="no"?>
<!DOCTYPE svg PUBLIC "-//W3C//DTD SVG 20010904//EN"
 "http://www.w3.org/TR/2001/REC-SVG-20010904/DTD/svg10.dtd">
<svg version="1.0" xmlns="http://www.w3.org/2000/svg"
 width="1080.000000pt" height="1080.000000pt" viewBox="0 0 1080.000000 1080.000000"
 preserveAspectRatio="xMidYMid meet">

<g transform="translate(0.000000,1080.000000) scale(0.100000,-0.100000)"
fill="#000000" stroke="none">
<path d="M5523 8478 c-4 -7 -13 -60 -20 -118 -23 -201 -34 -286 -48 -370 -8
-47 -19 -123 -25 -170 -6 -47 -14 -109 -19 -137 -4 -29 -5 -57 -2 -61 3 -5 25
-12 49 -16 37 -6 42 -4 42 13 0 11 5 32 12 46 l12 26 46 -46 c135 -133 382
-103 472 58 76 136 67 289 -24 392 -61 69 -125 98 -228 102 -78 4 -90 2 -143
-26 l-59 -29 6 81 c4 45 11 102 16 127 24 120 24 116 -19 128 -49 15 -58 15
-68 0z m366 -405 c54 -39 84 -89 89 -150 8 -90 -5 -136 -50 -187 -55 -63 -83
-76 -166 -76 -60 0 -74 4 -108 29 -84 62 -110 115 -101 212 8 95 66 174 145
200 15 5 55 7 90 4 48 -3 72 -11 101 -32z"/>
<path d="M4263 8261 c-28 -25 -31 -33 -23 -57 10 -33 38 -147 51 -214 5 -25
12 -52 16 -60 3 -8 12 -42 19 -75 20 -98 34 -157 50 -207 9 -26 14 -59 12 -74
-3 -26 -4 -25 -84 38 -44 34 -136 108 -204 163 -67 55 -155 126 -195 158 l-73
57 -41 -27 c-45 -29 -47 -38 -27 -109 8 -27 24 -94 36 -149 12 -55 28 -122 35
-150 14 -52 29 -116 46 -200 6 -27 15 -57 20 -67 5 -9 6 -24 3 -32 -8 -20 -27
-10 -86 44 -24 22 -74 63 -110 92 -79 63 -187 152 -281 230 l-68 57 -42 -18
c-63 -27 -59 -46 23 -111 39 -30 105 -84 148 -120 42 -36 92 -76 110 -89 18
-13 52 -40 75 -61 23 -20 91 -76 150 -124 118 -94 110 -92 182 -42 17 12 31
21 31 21 1 0 -9 43 -23 95 -14 52 -29 116 -33 143 -5 26 -13 62 -19 80 -18 59
-72 281 -78 320 -3 20 -1 37 3 37 5 0 27 -15 50 -33 161 -127 205 -162 248
-199 27 -24 65 -54 85 -68 20 -14 42 -30 49 -37 42 -40 101 -83 113 -83 8 0
31 11 52 25 42 29 47 58 23 135 -14 43 -26 91 -119 475 -15 66 -32 131 -54
213 -7 28 -19 52 -26 52 -7 0 -27 -13 -44 -29z"/>
<path d="M4895 8182 c-159 -60 -230 -184 -206 -357 15 -105 72 -183 174 -237
35 -19 58 -23 138 -23 53 0 107 5 120 11 13 6 35 17 49 23 105 49 140 96 98
131 -31 26 -48 25 -77 -6 -44 -46 -93 -64 -176 -64 -56 0 -86 5 -114 20 -41
20 -101 88 -101 112 0 20 43 38 91 38 22 0 72 7 112 14 40 8 107 20 150 25 98
14 147 33 147 60 0 10 -10 45 -22 76 -25 66 -86 133 -149 166 -61 31 -167 36
-234 11z m148 -78 c45 -8 121 -71 136 -115 10 -29 9 -31 -22 -43 -18 -7 -69
-16 -115 -19 -45 -4 -90 -11 -100 -16 -9 -5 -48 -11 -87 -12 l-70 -4 3 40 c10
115 123 190 255 169z"/>
<path d="M6802 8073 c-10 -16 -36 -53 -58 -83 -57 -81 -110 -158 -152 -220
-21 -30 -56 -80 -77 -110 -21 -30 -57 -81 -79 -114 -23 -32 -51 -73 -63 -90
-28 -40 -28 -41 10 -64 17 -11 61 -41 97 -67 248 -176 297 -199 431 -200 47 0
97 5 110 11 13 7 39 18 58 25 19 7 64 40 99 73 121 113 169 271 124 412 -21
66 -74 153 -119 196 -22 21 -304 223 -350 251 -7 4 -19 -4 -31 -20z m99 -146
c179 -122 211 -148 252 -209 48 -72 64 -149 47 -225 -17 -80 -40 -120 -102
-179 -54 -52 -142 -94 -197 -94 -72 0 -159 43 -357 177 -54 37 -63 15 112 268
19 28 42 61 52 73 9 13 26 38 37 56 31 51 109 155 116 156 3 0 21 -10 40 -23z"/>
<path d="M7335 7192 c-76 -25 -108 -46 -158 -102 -76 -85 -97 -188 -62 -300
38 -118 166 -240 253 -240 31 0 42 14 42 55 0 20 -8 27 -42 37 -63 19 -138
100 -162 175 -18 58 -18 63 -1 112 9 29 27 64 39 78 l22 25 27 -33 c33 -40
107 -143 195 -267 34 -50 69 -95 77 -102 12 -10 25 -2 69 40 77 72 99 122 99
220 0 92 -23 149 -87 218 -44 48 -75 66 -145 88 -58 18 -103 16 -166 -4z m157
-90 c42 -13 68 -29 93 -58 46 -51 59 -93 52 -171 -4 -54 -10 -70 -33 -94 l-29
-30 -25 29 c-14 16 -50 64 -80 106 -30 43 -74 103 -97 134 -23 31 -39 60 -35
64 7 7 79 36 92 37 3 0 31 -7 62 -17z"/>
<path d="M3029 6953 c-27 -44 -29 -105 -5 -151 9 -17 16 -43 16 -57 0 -14 7
-42 15 -62 8 -19 15 -43 15 -53 0 -10 9 -46 20 -81 12 -35 20 -74 18 -85 -3
-21 -3 -21 -55 5 -135 67 -379 194 -388 201 -30 22 -55 18 -75 -15 -11 -18
-20 -39 -20 -46 0 -8 44 -36 98 -62 53 -27 111 -56 127 -66 17 -10 111 -59
210 -111 99 -51 208 -108 243 -126 76 -41 105 -43 120 -9 22 49 16 61 -54 97
-60 31 -69 40 -85 83 -10 26 -21 67 -25 91 l-6 42 49 12 c26 6 82 17 123 24
182 33 199 38 210 65 6 14 18 39 26 54 9 16 14 31 11 33 -2 3 -24 0 -48 -6
-83 -19 -204 -42 -273 -51 -38 -5 -77 -14 -87 -19 -9 -6 -24 -8 -31 -5 -15 6
-38 51 -38 74 0 19 -71 243 -80 254 -4 5 -18 -9 -31 -30z"/>
<path d="M7864 6668 c-28 -29 -137 -137 -243 -239 -180 -175 -193 -189 -187
-215 13 -58 38 -77 112 -85 130 -15 580 -23 588 -11 4 6 0 27 -8 47 -14 32
-18 35 -58 36 -242 4 -480 17 -489 26 -8 8 41 62 181 200 l192 188 -17 53
c-10 28 -18 52 -19 52 -1 0 -25 -24 -52 -52z"/>
<path d="M2737 6195 c-82 -80 -118 -227 -82 -337 30 -90 81 -149 164 -189 64
-32 194 -38 259 -13 60 22 137 95 170 159 23 44 26 62 27 155 0 92 -3 109 -23
141 -38 62 -48 66 -82 34 -35 -34 -36 -39 -11 -72 48 -60 34 -196 -25 -257
-74 -76 -162 -94 -256 -53 -94 42 -156 135 -145 216 8 61 48 134 90 160 41 27
45 40 21 76 -24 37 -55 31 -107 -20z"/>
<path d="M7815 5940 c-70 -10 -104 -30 -161 -93 -82 -90 -104 -203 -64 -336
22 -76 70 -141 104 -141 12 0 32 10 44 23 l22 23 -26 25 c-39 36 -74 118 -74
172 0 45 33 133 62 167 20 24 89 62 103 56 14 -5 15 -14 39 -295 11 -128 20
-198 29 -203 35 -25 180 28 235 85 59 62 76 110 75 216 0 82 -4 103 -26 146
-30 59 -76 105 -132 133 -46 23 -156 34 -230 22z m205 -120 c49 -25 75 -57 90
-110 16 -57 14 -101 -6 -148 -25 -60 -95 -122 -137 -122 -21 0 -35 90 -42 263
l-6 149 33 -7 c18 -4 49 -15 68 -25z"/>
<path d="M3090 5519 c-47 -4 -143 -12 -215 -17 -158 -11 -203 -30 -249 -105
-29 -47 -30 -53 -29 -163 0 -111 1 -116 37 -189 20 -41 41 -75 46 -75 5 0 25
9 44 21 l35 20 -29 49 c-16 27 -34 76 -40 109 -20 112 9 183 90 215 74 30 90
4 90 -147 0 -71 5 -111 15 -131 8 -15 15 -33 15 -40 1 -18 44 -63 78 -80 60
-31 153 -14 199 36 36 39 53 95 53 173 0 82 -20 142 -64 188 -30 32 -27 47 9
47 27 0 39 28 33 71 -4 28 -7 29 -118 18z m4 -159 c41 -46 51 -74 51 -151 0
-87 -33 -129 -103 -129 -70 0 -96 52 -106 208 l-6 112 64 0 c62 0 65 -1 100
-40z"/>
<path d="M7577 5203 c-4 -3 -7 -25 -7 -49 0 -49 9 -54 106 -54 34 0 95 -7 135
-15 41 -8 126 -19 189 -25 63 -6 140 -14 170 -19 30 -5 84 -10 120 -10 36 -1
79 -5 97 -10 39 -11 50 -1 59 57 5 32 3 42 -7 43 -65 4 -292 28 -464 50 -260
32 -388 42 -398 32z"/>
<path d="M3187 4942 c-22 -24 -21 -41 3 -72 25 -32 26 -90 0 -122 -20 -26 -51
-39 -180 -77 -41 -13 -91 -29 -110 -36 -19 -7 -49 -16 -67 -19 -28 -5 -34 -1
-47 24 -8 16 -17 47 -21 69 -8 48 -26 65 -60 57 -36 -9 -41 -30 -22 -90 34
-106 34 -106 -45 -120 -21 -4 -40 -11 -43 -16 -5 -8 9 -87 17 -95 2 -2 32 3
67 12 61 15 64 15 75 -3 6 -10 13 -30 16 -44 5 -22 10 -25 40 -22 48 4 53 12
35 62 -10 29 -12 47 -5 54 8 8 62 25 185 57 22 5 44 14 49 20 6 5 21 9 34 9
36 0 124 44 159 80 61 63 52 189 -20 268 -25 27 -39 28 -60 4z"/>
<path d="M7687 4930 c-27 -5 -57 -16 -66 -24 -10 -9 -22 -16 -28 -16 -18 0
-81 -76 -109 -132 -25 -47 -28 -64 -28 -154 0 -91 2 -104 26 -145 101 -172
336 -224 483 -106 43 34 88 101 108 162 23 67 22 172 -3 229 -25 60 -93 132
-150 161 -52 26 -160 37 -233 25z m191 -124 c112 -57 153 -176 97 -285 -38
-76 -117 -131 -188 -131 -54 0 -149 42 -188 83 -91 93 -66 254 50 333 51 34
161 34 229 0z"/>
<path d="M3230 4504 c-19 -8 -47 -27 -62 -41 -26 -25 -28 -33 -28 -102 0 -71
19 -154 56 -239 20 -46 18 -60 -15 -93 -39 -39 -72 -37 -119 5 -41 37 -92 128
-92 162 0 12 -3 36 -6 53 -6 29 -9 31 -50 31 l-44 0 0 -39 c0 -39 38 -156 63
-194 8 -12 35 -45 61 -74 95 -106 212 -103 289 7 21 30 22 99 2 160 -48 146
-55 173 -55 200 0 36 34 70 72 70 36 0 91 -49 117 -103 28 -59 61 -175 55
-190 -8 -22 18 -35 60 -29 l38 4 -5 50 c-12 97 -68 226 -126 291 -61 68 -150
98 -211 71z"/>
<path d="M7123 4463 c-25 -36 -20 -52 25 -85 20 -15 75 -55 122 -89 l85 -63
-45 -12 c-66 -17 -104 -40 -144 -84 -65 -72 -80 -113 -79 -221 0 -83 3 -102
23 -135 49 -82 119 -138 207 -167 128 -42 252 2 341 120 43 57 62 112 62 180
l0 55 34 -21 34 -21 31 37 c17 21 31 40 31 43 0 3 -21 20 -47 38 -48 32 -101
70 -210 149 -32 24 -107 79 -168 122 -60 44 -141 103 -178 130 -38 28 -77 51
-87 51 -10 0 -27 -12 -37 -27z m363 -337 c48 -23 94 -65 127 -116 12 -17 17
-46 17 -96 0 -63 -3 -76 -29 -111 -16 -23 -46 -54 -67 -69 -34 -26 -45 -29
-113 -29 -79 0 -124 18 -177 69 -65 63 -80 188 -33 261 69 106 173 141 275 91z"/>
<path d="M3598 4002 c-31 -26 -101 -83 -155 -127 -54 -44 -117 -97 -139 -118
-23 -21 -60 -50 -82 -65 -22 -15 -66 -51 -98 -80 -33 -30 -71 -61 -86 -70 -15
-9 -30 -23 -33 -31 -6 -16 41 -71 62 -71 13 0 87 56 219 165 33 27 103 85 155
127 52 42 139 114 194 159 55 45 101 85 103 90 6 16 -42 69 -62 68 -12 0 -47
-21 -78 -47z"/>
<path d="M3678 3657 c-245 -256 -408 -433 -408 -444 0 -5 15 -24 33 -41 l34
-33 57 63 c32 35 106 113 165 173 211 217 371 392 371 407 0 13 -28 43 -57 61
-6 4 -90 -76 -195 -186z"/>
<path d="M6803 3715 c-58 -18 -146 -79 -183 -125 -36 -45 -77 -147 -64 -160 5
-4 26 -12 46 -15 35 -7 38 -5 44 21 7 30 37 85 64 117 22 27 101 65 150 73 57
9 146 -13 164 -41 14 -21 12 -24 -27 -56 -23 -18 -46 -37 -52 -41 -5 -5 -62
-47 -125 -95 -157 -117 -170 -129 -170 -151 0 -29 103 -119 153 -134 67 -20
175 -16 228 10 62 30 137 106 167 171 21 46 24 63 19 130 -6 95 -30 146 -106
222 -45 44 -69 60 -113 73 -66 19 -136 19 -195 1z m305 -237 c7 -7 12 -40 12
-80 0 -56 -5 -76 -25 -109 -29 -46 -102 -96 -153 -105 -44 -8 -132 18 -158 47
-19 21 -19 21 21 56 22 19 65 52 95 73 30 21 64 46 75 57 32 28 99 73 110 73
6 0 16 -5 23 -12z"/>
<path d="M3885 3421 c-82 -140 -151 -263 -153 -272 -4 -22 44 -52 72 -45 15 4
49 52 114 161 80 134 99 160 140 185 73 46 163 35 236 -29 25 -22 56 -85 56
-115 0 -33 -27 -101 -61 -151 -15 -22 -38 -60 -51 -85 -13 -25 -39 -67 -56
-95 -42 -66 -41 -88 4 -114 19 -12 37 -21 38 -21 2 0 38 60 81 133 42 72 85
143 94 157 38 57 56 115 56 181 0 59 -4 73 -30 111 -69 98 -183 148 -298 133
l-50 -7 23 37 24 38 -29 23 c-16 12 -36 24 -44 27 -12 3 -56 -65 -166 -252z"/>
<path d="M6321 3431 c-18 -12 -17 -50 2 -92 9 -19 31 -68 50 -109 19 -41 40
-93 47 -115 7 -22 16 -44 21 -50 38 -41 -40 -187 -112 -210 -26 -8 -25 -59 1
-85 19 -19 23 -19 48 -6 42 22 89 76 108 126 l18 44 12 -30 c18 -45 41 -61 65
-46 10 7 25 12 33 12 21 0 28 16 17 37 -13 23 -51 110 -51 117 0 3 -13 33 -29
68 -16 35 -57 126 -90 203 -59 138 -60 140 -93 143 -18 1 -39 -2 -47 -7z"/>
<path d="M5679 3242 c-30 -15 -34 -22 -37 -63 -3 -53 8 -67 61 -76 30 -5 40
-1 61 22 30 32 33 61 8 91 -30 38 -55 45 -93 26z"/>
<path d="M5034 3233 c-3 -10 -10 -29 -15 -43 -5 -14 -16 -56 -25 -95 -8 -38
-20 -91 -26 -117 -7 -30 -16 -48 -25 -48 -17 0 -175 35 -248 55 -128 35 -165
28 -165 -29 0 -31 3 -34 38 -40 61 -12 214 -47 262 -61 25 -7 58 -16 74 -20
32 -7 32 -5 2 -130 -24 -99 -39 -149 -45 -157 -3 -3 -44 3 -91 14 -47 11 -114
26 -150 33 -36 7 -79 18 -96 25 -18 6 -54 10 -80 8 l-49 -3 0 -40 0 -40 65
-11 c36 -6 78 -16 93 -23 16 -6 40 -11 55 -11 14 0 44 -6 67 -14 63 -23 230
-58 256 -54 16 2 26 12 31 33 4 17 16 68 28 115 18 78 26 113 60 265 7 28 18
73 25 100 15 50 48 193 60 252 7 35 12 31 -70 48 -19 4 -27 1 -31 -12z"/>
</g>
</svg>
